<?xml version="1.0" encoding="UTF-8"?>
<svg version="1.1" xmlns="http://www.w3.org/2000/svg" width="50" height="50">
<path d="M0 0 C3.10526501 1.21874276 4.7824639 2.76649983 7.12744141 5.13671875 C8.38234375 6.39742187 8.38234375 6.39742187 9.66259766 7.68359375 C10.52240234 8.56789063 11.38220703 9.4521875 12.26806641 10.36328125 C13.58097656 11.678125 13.58097656 11.678125 14.92041016 13.01953125 C21.37756948 19.56679047 21.37756948 19.56679047 22.51806641 22.98828125 C20.28100586 23.71459961 20.28100586 23.71459961 17.51806641 23.98828125 C15.38989258 22.54125977 15.38989258 22.54125977 13.31103516 20.3671875 C12.56015625 19.59697266 11.80927734 18.82675781 11.03564453 18.03320312 C10.26671875 17.21400391 9.49779297 16.39480469 8.70556641 15.55078125 C7.91730469 14.73544922 7.12904297 13.92011719 6.31689453 13.08007812 C4.36985332 11.06223541 2.4381229 9.03176316 0.51806641 6.98828125 C-2.64771034 8.375288 -4.64219343 9.9667072 -6.97802734 12.5 C-7.61933594 13.17482422 -8.26064453 13.84964844 -8.92138672 14.54492188 C-10.2574583 15.96980368 -11.58557586 17.40218417 -12.90576172 18.84179688 C-13.54835938 19.51275391 -14.19095703 20.18371094 -14.85302734 20.875 C-15.7181897 21.80638794 -15.7181897 21.80638794 -16.60083008 22.7565918 C-18.48193359 23.98828125 -18.48193359 23.98828125 -21.20874023 23.68286133 C-21.95889404 23.4536499 -22.70904785 23.22443848 -23.48193359 22.98828125 C-20.32415506 17.36167155 -16.11358405 13.17725 -11.60693359 8.61328125 C-10.80384766 7.76894531 -10.00076172 6.92460937 -9.17333984 6.0546875 C-8.39087891 5.26191406 -7.60841797 4.46914063 -6.80224609 3.65234375 C-6.09342285 2.9248291 -5.38459961 2.19731445 -4.65429688 1.44775391 C-2.48193359 -0.01171875 -2.48193359 -0.01171875 0 0 Z " fill="#3FC056" transform="translate(25.48193359375,13.01171875)"/>
</svg>
