<?xml version="1.0" encoding="UTF-8"?>
<svg version="1.1" xmlns="http://www.w3.org/2000/svg" width="24" height="24">
<path d="M0 0 C1.32 0 2.64 0 4 0 C4 0.66 4 1.32 4 2 C4.96873047 2.34224609 4.96873047 2.34224609 5.95703125 2.69140625 C8 4 8 4 8.57421875 6.27734375 C8.61160156 7.15519531 8.64898437 8.03304688 8.6875 8.9375 C8.84280292 11.95037669 9.03712647 14.11137941 10 17 C4.72 17 -0.56 17 -6 17 C-4.828125 7.0390625 -4.828125 7.0390625 -4 4 C-1.921875 2.5859375 -1.921875 2.5859375 0 2 C0 1.34 0 0.68 0 0 Z " fill="#FFFFFF" transform="translate(10,2)"/>
<path d="M0 0 C1.32 0 2.64 0 4 0 C4 0.66 4 1.32 4 2 C2.68 2 1.36 2 0 2 C0 1.34 0 0.68 0 0 Z " fill="#FFFFFF" transform="translate(10,20)"/>
</svg>
