<?xml version="1.0" encoding="UTF-8"?>
<svg version="1.1" xmlns="http://www.w3.org/2000/svg" width="125" height="126">
<path d="M0 0 C41.25 0 82.5 0 125 0 C125 41.58 125 83.16 125 126 C83.75 126 42.5 126 0 126 C0 84.42 0 42.84 0 0 Z " fill="#EE8783" transform="translate(0,0)"/>
<path d="M0 0 C7.33793836 2.71318729 14.04670251 8.25000525 18 15 C19.83997722 20.37861456 21 26.32087861 21 32 C20.484375 31.731875 19.96875 31.46375 19.4375 31.1875 C18.633125 30.795625 17.82875 30.40375 17 30 C15.96875 29.46375 14.9375 28.9275 13.875 28.375 C9.36207726 26.41841694 4.82867214 26.73767777 0 27 C-0.495 28.485 -0.495 28.485 -1 30 C-5.29 30 -9.58 30 -14 30 C-14 29.01 -14 28.02 -14 27 C-17.96 27.495 -17.96 27.495 -22 28 C-22 28.66 -22 29.32 -22 30 C-20.02 30 -18.04 30 -16 30 C-16.66 31.32 -17.32 32.64 -18 34 C-19.98 34 -21.96 34 -24 34 C-24 34.99 -24 35.98 -24 37 C-23.01 36.505 -23.01 36.505 -22 36 C-20.29297265 35.93003986 -18.58331997 35.91559846 -16.875 35.9375 C-15.96492188 35.94652344 -15.05484375 35.95554688 -14.1171875 35.96484375 C-13.41851562 35.97644531 -12.71984375 35.98804688 -12 36 C-12.33 34.68 -12.66 33.36 -13 32 C-12.01 32 -11.02 32 -10 32 C-10 33.65 -10 35.3 -10 37 C-9.67 36.34 -9.34 35.68 -9 35 C-7.68 35 -6.36 35 -5 35 C-4.34 33.68 -3.68 32.36 -3 31 C-2.34 31 -1.68 31 -1 31 C-0.505 32.485 -0.505 32.485 0 34 C3.3 34.33 6.6 34.66 10 35 C9.67 33.35 9.34 31.7 9 30 C10.65 30 12.3 30 14 30 C14.66 31.32 15.32 32.64 16 34 C16.8971875 33.7215625 16.8971875 33.7215625 17.8125 33.4375 C20 33 20 33 23 34 C23.2137731 41.68395543 23.01670288 48.56340812 21 56 C20.34 56 19.68 56 19 56 C16.33148333 62.2265389 15.85761486 66.7395065 16.75 73.5 C16.90984375 74.7890625 17.0696875 76.078125 17.234375 77.40625 C17.99131423 80.95923005 19.0448438 82.9947599 21 86 C21.94921875 88.53515625 21.94921875 88.53515625 22.6875 91.0625 C22.93886719 91.89910156 23.19023438 92.73570313 23.44921875 93.59765625 C24 96 24 96 24 100 C24.66 100 25.32 100 26 100 C26 104.29 26 108.58 26 113 C6.86 113 -12.28 113 -32 113 C-32 102.87425625 -32 102.87425625 -30.94140625 99.2890625 C-30.72033203 98.51949219 -30.49925781 97.74992187 -30.27148438 96.95703125 C-30.03751953 96.18746094 -29.80355469 95.41789062 -29.5625 94.625 C-29.33240234 93.83222656 -29.10230469 93.03945312 -28.86523438 92.22265625 C-27.9619813 89.12803266 -27.01952646 86.05857938 -26 83 C-25.8517167 80.1740624 -25.76898562 77.38898351 -25.75 74.5625 C-25.729375 73.79873047 -25.70875 73.03496094 -25.6875 72.24804688 C-25.65666829 67.8198428 -25.81757648 65.33653604 -29 62 C-33.97866915 53.88530082 -35.34832433 45.40475699 -35 36 C-33.515 35.505 -33.515 35.505 -32 35 C-32.495 33.515 -32.495 33.515 -33 32 C-33.91812279 24.36447253 -33.27052131 18.67894373 -28.9140625 12.2578125 C-25.74006218 8.51378763 -22.09046017 5.6819191 -18 3 C-17.21109375 2.4534375 -16.4221875 1.906875 -15.609375 1.34375 C-10.64466481 -1.2129271 -5.41932202 -0.75794714 0 0 Z " fill="#CAA7A6" transform="translate(68,13)"/>
<path d="M0 0 C0 0.66 0 1.32 0 2 C1.65 1.67 3.3 1.34 5 1 C5.17922662 6.1975721 5.02641345 10.11276756 3 15 C2 16 2 16 -0.50390625 16.09765625 C-1.51324219 16.08605469 -2.52257812 16.07445313 -3.5625 16.0625 C-4.57441406 16.05347656 -5.58632812 16.04445313 -6.62890625 16.03515625 C-7.80259766 16.01775391 -7.80259766 16.01775391 -9 16 C-9 13 -9 13 -8 12 C-6.33382885 11.95936168 -4.66611905 11.957279 -3 12 C-2.67 10.35 -2.34 8.7 -2 7 C-5.96 7 -9.92 7 -14 7 C-13.01 8.98 -12.02 10.96 -11 13 C-12.62339805 14.70884005 -14.29319053 16.37446717 -16 18 C-16.66 18 -17.32 18 -18 18 C-18.16918268 16.41693353 -18.33523936 14.83353281 -18.5 13.25 C-18.5928125 12.36828125 -18.685625 11.4865625 -18.78125 10.578125 C-19 8 -19 8 -19 4 C-18.01 3.67 -17.02 3.34 -16 3 C-15.67 2.34 -15.34 1.68 -15 1 C-9.95057555 0.12940958 -5.1135805 -0.10653293 0 0 Z M13 10 C13.33 10 13.66 10 14 10 C14.10957031 10.88042969 14.21914062 11.76085937 14.33203125 12.66796875 C14.49058594 13.82941406 14.64914063 14.99085937 14.8125 16.1875 C14.96332031 17.33605469 15.11414063 18.48460938 15.26953125 19.66796875 C16.0149005 23.06796861 17.14118898 25.09797872 19 28 C19.94921875 30.53515625 19.94921875 30.53515625 20.6875 33.0625 C20.93886719 33.89910156 21.19023438 34.73570313 21.44921875 35.59765625 C22 38 22 38 22 42 C22.66 42 23.32 42 24 42 C24 46.29 24 50.58 24 55 C4.86 55 -14.28 55 -34 55 C-34 48.17201539 -33.63101083 43.55579519 -31.6875 37.3125 C-31.22579769 35.74968927 -30.76750406 34.18586776 -30.3125 32.62109375 C-30.08820312 31.85007324 -29.86390625 31.07905273 -29.6328125 30.28466797 C-28.14704054 24.92052678 -27.07934612 19.45815678 -26 14 C-25.401875 14.61875 -24.80375 15.2375 -24.1875 15.875 C-21.99188856 18.13676954 -21.99188856 18.13676954 -19 20 C-19.33 20.99 -19.66 21.98 -20 23 C-19.33131686 26.11332248 -19.33131686 26.11332248 -16.9375 27.1875 C-16.298125 27.455625 -15.65875 27.72375 -15 28 C-15 27.34 -15 26.68 -15 26 C-13.35 25.67 -11.7 25.34 -10 25 C-10.33 26.32 -10.66 27.64 -11 29 C-10.38511719 28.9278125 -9.77023438 28.855625 -9.13671875 28.78125 C-8.32847656 28.6884375 -7.52023438 28.595625 -6.6875 28.5 C-5.88699219 28.4071875 -5.08648437 28.314375 -4.26171875 28.21875 C-2 28 -2 28 1 28 C3.16666667 27.33333333 3.16666667 27.33333333 5 26 C5.80528889 23.94999129 5.80528889 23.94999129 6 22 C6.66 22 7.32 22 8 22 C8.0825 21.319375 8.165 20.63875 8.25 19.9375 C9.22332528 16.1253093 10.95807455 13.35929671 13 10 Z " fill="#E7DBDA" transform="translate(70,71)"/>
<path d="M0 0 C7.33793836 2.71318729 14.04670251 8.25000525 18 15 C19.83997722 20.37861456 21 26.32087861 21 32 C20.484375 31.731875 19.96875 31.46375 19.4375 31.1875 C18.633125 30.795625 17.82875 30.40375 17 30 C15.96875 29.46375 14.9375 28.9275 13.875 28.375 C9.36207726 26.41841694 4.82867214 26.73767777 0 27 C-0.495 28.485 -0.495 28.485 -1 30 C-4.3 30 -7.6 30 -11 30 C-11 28.68 -11 27.36 -11 26 C-13.27155498 26.08702126 -15.54230743 26.19519522 -17.8125 26.3125 C-19.70935547 26.39951172 -19.70935547 26.39951172 -21.64453125 26.48828125 C-25.11953429 27.01822933 -25.88377324 27.37756617 -28 30 C-28.66 30 -29.32 30 -30 30 C-30 30.66 -30 31.32 -30 32 C-30.99 32 -31.98 32 -33 32 C-33.71411905 24.30338361 -33.31632089 18.74644928 -28.9140625 12.2578125 C-25.74006218 8.51378763 -22.09046017 5.6819191 -18 3 C-17.21109375 2.4534375 -16.4221875 1.906875 -15.609375 1.34375 C-10.64466481 -1.2129271 -5.41932202 -0.75794714 0 0 Z " fill="#F3E8E7" transform="translate(68,13)"/>
<path d="M0 0 C0.66 0 1.32 0 2 0 C1.48595494 6.16854073 0.37556158 11.84797829 -1.28125 17.8125 C-2.18370972 21.81471266 -2.54693268 25.92239411 -3 30 C-14.88 30 -26.76 30 -39 30 C-39 26.7 -39 23.4 -39 20 C-36.41210938 18.92578125 -36.41210938 18.92578125 -33.82421875 17.8515625 C-31.73466068 16.93193308 -31.73466068 16.93193308 -29 15 C-27.4840625 14.505 -27.4840625 14.505 -25.9375 14 C-22.91944266 13.21378109 -22.91944266 13.21378109 -21 11 C-19.4519425 10.34637572 -17.90256668 9.69574388 -16.34765625 9.05859375 C-7.60167091 5.35565882 -7.60167091 5.35565882 0 0 Z " fill="#605665" transform="translate(39,96)"/>
<path d="M0 0 C1.88138672 0.05414063 1.88138672 0.05414063 3.80078125 0.109375 C5.22970703 0.17898437 5.22970703 0.17898437 6.6875 0.25 C6.6875 1.57 6.6875 2.89 6.6875 4.25 C5.6975 4.25 4.7075 4.25 3.6875 4.25 C3.6875 3.26 3.6875 2.27 3.6875 1.25 C1.0475 1.58 -1.5925 1.91 -4.3125 2.25 C-4.3125 2.91 -4.3125 3.57 -4.3125 4.25 C-2.3325 4.25 -0.3525 4.25 1.6875 4.25 C1.0275 5.57 0.3675 6.89 -0.3125 8.25 C-2.2925 8.25 -4.2725 8.25 -6.3125 8.25 C-6.3125 9.24 -6.3125 10.23 -6.3125 11.25 C-5.6525 10.92 -4.9925 10.59 -4.3125 10.25 C-2.60547265 10.18003986 -0.89581997 10.16559846 0.8125 10.1875 C1.72257812 10.19652344 2.63265625 10.20554687 3.5703125 10.21484375 C4.61832031 10.23224609 4.61832031 10.23224609 5.6875 10.25 C5.3575 8.93 5.0275 7.61 4.6875 6.25 C5.6775 6.25 6.6675 6.25 7.6875 6.25 C7.6875 7.9 7.6875 9.55 7.6875 11.25 C8.0175 10.59 8.3475 9.93 8.6875 9.25 C10.0075 9.25 11.3275 9.25 12.6875 9.25 C15.9861558 12.83317598 18.23167083 17.38782216 18.6875 22.25 C17.3675 22.25 16.0475 22.25 14.6875 22.25 C14.6875 22.91 14.6875 23.57 14.6875 24.25 C11.3875 24.25 8.0875 24.25 4.6875 24.25 C4.6875 24.91 4.6875 25.57 4.6875 26.25 C3.3675 26.25 2.0475 26.25 0.6875 26.25 C1.0175 24.93 1.3475 23.61 1.6875 22.25 C-3.11877922 24.82479244 -4.41591661 29.43792406 -6.3125 34.25 C-9.625 33.75 -9.625 33.75 -13.3125 32.25 C-17.45322558 25.8252443 -17.4396284 17.62344693 -17.3125 10.25 C-16.3225 9.92 -15.3325 9.59 -14.3125 9.25 C-14.3125 8.26 -14.3125 7.27 -14.3125 6.25 C-13.6525 6.25 -12.9925 6.25 -12.3125 6.25 C-12.3125 5.59 -12.3125 4.93 -12.3125 4.25 C-8.36113792 0.17019977 -5.56572057 -0.20806432 0 0 Z " fill="#E1C6C1" transform="translate(50.3125,38.75)"/>
<path d="M0 0 C0.66 0 1.32 0 2 0 C2 1.32 2 2.64 2 4 C2.99 4.33 3.98 4.66 5 5 C3.84885706 9.51602229 2.45076043 13.05747235 0 17 C-0.185625 17.7425 -0.37125 18.485 -0.5625 19.25 C-0.706875 19.8275 -0.85125 20.405 -1 21 C-1.66 21.33 -2.32 21.66 -3 22 C-3.33 22.99 -3.66 23.98 -4 25 C-8.9981913 28.30069237 -11.58696971 29.62055096 -17.75 28.5 C-18.4925 28.335 -19.235 28.17 -20 28 C-19.67 26.68 -19.34 25.36 -19 24 C-20.65 24.33 -22.3 24.66 -24 25 C-24 25.66 -24 26.32 -24 27 C-26.4375 26.3125 -26.4375 26.3125 -29 25 C-29.8125 22.375 -29.8125 22.375 -30 20 C-29.2575 19.443125 -28.515 18.88625 -27.75 18.3125 C-25.08292005 16.06972822 -23.08443768 13.77925025 -21 11 C-21.66 9.35 -22.32 7.7 -23 6 C-19.04 6 -15.08 6 -11 6 C-11.33 7.65 -11.66 9.3 -12 11 C-13.98 11.66 -15.96 12.32 -18 13 C-18 13.33 -18 13.66 -18 14 C-16.22925083 14.02705729 -14.45838289 14.04642195 -12.6875 14.0625 C-11.70136719 14.07410156 -10.71523437 14.08570312 -9.69921875 14.09765625 C-6.90036151 14.12329862 -6.90036151 14.12329862 -4 13 C-3.87625 11.700625 -3.7525 10.40125 -3.625 9.0625 C-3.4140625 6.84765625 -3.4140625 6.84765625 -3 5 C-2.34 4.67 -1.68 4.34 -1 4 C-0.34786708 1.97536745 -0.34786708 1.97536745 0 0 Z " fill="#BAA5A1" transform="translate(79,72)"/>
<path d="M0 0 C41.25 0 82.5 0 125 0 C125 33.33 125 66.66 125 101 C123.02 100.01 123.02 100.01 121 99 C121 98.34 121 97.68 121 97 C121.66 97 122.32 97 123 97 C123.33 65.65 123.66 34.3 124 2 C112.20701172 2.01740234 112.20701172 2.01740234 100.17578125 2.03515625 C95.17643146 2.04026954 90.17708492 2.0450838 85.17773438 2.04882812 C77.25349331 2.05479134 69.32926183 2.06182393 61.4050293 2.07543945 C55.01188721 2.08635471 48.61875761 2.09229506 42.22560692 2.09487724 C39.79414867 2.09671598 37.36269106 2.10030642 34.93123817 2.10573006 C10.46398505 2.1581055 10.46398505 2.1581055 0 1 C0 0.67 0 0.34 0 0 Z " fill="#EAB4B3" transform="translate(0,0)"/>
<path d="M0 0 C1.88138672 0.05414063 1.88138672 0.05414063 3.80078125 0.109375 C5.22970703 0.17898437 5.22970703 0.17898437 6.6875 0.25 C6.6875 1.57 6.6875 2.89 6.6875 4.25 C5.6975 4.25 4.7075 4.25 3.6875 4.25 C3.6875 3.26 3.6875 2.27 3.6875 1.25 C1.0475 1.58 -1.5925 1.91 -4.3125 2.25 C-4.3125 2.91 -4.3125 3.57 -4.3125 4.25 C-2.3325 4.25 -0.3525 4.25 1.6875 4.25 C1.0275 5.57 0.3675 6.89 -0.3125 8.25 C-2.2925 8.25 -4.2725 8.25 -6.3125 8.25 C-6.3125 9.24 -6.3125 10.23 -6.3125 11.25 C-5.6525 10.92 -4.9925 10.59 -4.3125 10.25 C-2.60547265 10.18003986 -0.89581997 10.16559846 0.8125 10.1875 C1.72257812 10.19652344 2.63265625 10.20554687 3.5703125 10.21484375 C4.61832031 10.23224609 4.61832031 10.23224609 5.6875 10.25 C5.3575 8.93 5.0275 7.61 4.6875 6.25 C5.6775 6.25 6.6675 6.25 7.6875 6.25 C7.76917446 7.66569064 7.82699698 9.08276805 7.875 10.5 C7.92720703 11.68335938 7.92720703 11.68335938 7.98046875 12.890625 C7.59958946 15.95797292 6.99781161 17.17868614 4.6875 19.25 C1.4375 19.7109375 1.4375 19.7109375 -2.3125 19.625 C-3.55 19.61210938 -4.7875 19.59921875 -6.0625 19.5859375 C-9.3125 19.25 -9.3125 19.25 -12.3125 17.25 C-12.3125 19.56 -12.3125 21.87 -12.3125 24.25 C-12.9725 23.92 -13.6325 23.59 -14.3125 23.25 C-14.76171875 20.44921875 -14.76171875 20.44921875 -15 16.9375 C-15.08636719 15.78636719 -15.17273437 14.63523437 -15.26171875 13.44921875 C-15.30460699 10.74725969 -15.14647927 8.78956093 -14.3125 6.25 C-13.6525 6.25 -12.9925 6.25 -12.3125 6.25 C-12.3125 5.59 -12.3125 4.93 -12.3125 4.25 C-8.36113792 0.17019977 -5.56572057 -0.20806432 0 0 Z " fill="#D4B9B7" transform="translate(50.3125,38.75)"/>
<path d="M0 0 C0.66 0 1.32 0 2 0 C1.47412104 6.22751404 0.5119664 11.6203104 -2.0625 17.375 C-3.32447818 20.9085389 -3.62054107 24.26865388 -4 28 C-4.99 28 -5.98 28 -7 28 C-8.0326802 25.21176345 -8.04509293 24.1322726 -7.0625 21.25 C-6.5365625 20.13625 -6.5365625 20.13625 -6 19 C-6.99 19.33 -7.98 19.66 -9 20 C-9 19.34 -9 18.68 -9 18 C-11.31 18 -13.62 18 -16 18 C-16.33 18.99 -16.66 19.98 -17 21 C-18.98 20.34 -20.96 19.68 -23 19 C-23 15.75 -23 15.75 -22 12 C-18.75 10 -18.75 10 -16.60546875 9.10546875 C-13.31314995 7.70857786 -10.20021372 6.02021665 -7.0625 4.3125 C-5.93972656 3.71050781 -4.81695312 3.10851562 -3.66015625 2.48828125 C-1.15353369 1.24414954 -1.15353369 1.24414954 0 0 Z " fill="#5D4E5B" transform="translate(39,96)"/>
<path d="M0 0 C0 0.66 0 1.32 0 2 C1.65 1.67 3.3 1.34 5 1 C5.17922662 6.1975721 5.02641345 10.11276756 3 15 C2 16 2 16 -0.50390625 16.09765625 C-1.51324219 16.08605469 -2.52257812 16.07445313 -3.5625 16.0625 C-4.57441406 16.05347656 -5.58632812 16.04445313 -6.62890625 16.03515625 C-7.80259766 16.01775391 -7.80259766 16.01775391 -9 16 C-9 13 -9 13 -8 12 C-6.33382885 11.95936168 -4.66611905 11.957279 -3 12 C-2.67 10.35 -2.34 8.7 -2 7 C-5.96 7 -9.92 7 -14 7 C-13.01 8.98 -12.02 10.96 -11 13 C-12.62339805 14.70884005 -14.29319053 16.37446717 -16 18 C-16.66 18 -17.32 18 -18 18 C-18.16918268 16.41693353 -18.33523936 14.83353281 -18.5 13.25 C-18.5928125 12.36828125 -18.685625 11.4865625 -18.78125 10.578125 C-19 8 -19 8 -19 4 C-18.01 3.67 -17.02 3.34 -16 3 C-15.67 2.34 -15.34 1.68 -15 1 C-9.95057555 0.12940958 -5.1135805 -0.10653293 0 0 Z M-23 18 C-21.02 18.99 -21.02 18.99 -19 20 C-19.33 21.32 -19.66 22.64 -20 24 C-20.66 24 -21.32 24 -22 24 C-22.33 22.02 -22.66 20.04 -23 18 Z " fill="#DCC4C4" transform="translate(70,71)"/>
<path d="M0 0 C6.51791392 -0.3540919 11.17521449 -0.03901852 17 3 C17 4.65 17 6.3 17 8 C16.34 8.33 15.68 8.66 15 9 C14.505 7.02 14.505 7.02 14 5 C11.525 4.505 11.525 4.505 9 4 C9.495 6.475 9.495 6.475 10 9 C6.7 9 3.4 9 0 9 C-0.33 7.68 -0.66 6.36 -1 5 C-3.51083114 6.25541557 -3.87125446 7.50063488 -5 10 C-6.32 9.67 -7.64 9.34 -9 9 C-9.33 10.65 -9.66 12.3 -10 14 C-10.98120464 10.94736336 -10.98120464 9.05263664 -10 6 C-10.99 6.495 -10.99 6.495 -12 7 C-12 7.99 -12 8.98 -12 10 C-17.94 10.495 -17.94 10.495 -24 11 C-24 10.01 -24 9.02 -24 8 C-23.030625 7.87625 -22.06125 7.7525 -21.0625 7.625 C-20.051875 7.41875 -19.04125 7.2125 -18 7 C-17.67 6.34 -17.34 5.68 -17 5 C-18.65 4.67 -20.3 4.34 -22 4 C-22 3.34 -22 2.68 -22 2 C-19.29120665 0.64560332 -16.99066732 0.93498549 -14 1 C-14 1.99 -14 2.98 -14 4 C-9.71 4 -5.42 4 -1 4 C-0.67 2.68 -0.34 1.36 0 0 Z " fill="#947E80" transform="translate(68,39)"/>
<path d="M0 0 C1.98 0 3.96 0 6 0 C6.19355213 7.65606218 6.3479743 14.66258031 4 22 C3.34 22 2.68 22 2 22 C2 18.7 2 15.4 2 12 C2.66 12 3.32 12 4 12 C3.34 10.02 2.68 8.04 2 6 C1.87882812 7.05960938 1.75765625 8.11921875 1.6328125 9.2109375 C1.46399248 10.59901324 1.29469692 11.98703119 1.125 13.375 C1.00705078 14.42300781 1.00705078 14.42300781 0.88671875 15.4921875 C0.2265625 20.7734375 0.2265625 20.7734375 -2 23 C-2.99 23 -3.98 23 -5 23 C-5 21.68 -5 20.36 -5 19 C-5.86625 18.690625 -5.86625 18.690625 -6.75 18.375 C-9.81410544 16.50249112 -11.15539968 14.03041481 -13 11 C-12.30132812 10.81824219 -11.60265625 10.63648438 -10.8828125 10.44921875 C-9.51769531 10.07216797 -9.51769531 10.07216797 -8.125 9.6875 C-6.76761719 9.32205078 -6.76761719 9.32205078 -5.3828125 8.94921875 C-2.67886681 8.13330148 -2.67886681 8.13330148 -1 5 C-0.61500109 3.34450469 -0.27206865 1.6777567 0 0 Z " fill="#E9D4D1" transform="translate(85,46)"/>
<path d="M0 0 C3.875 0.875 3.875 0.875 5 2 C5.16017882 6.16464926 4.98248196 9.94726192 4 14 C4.99 14.66 5.98 15.32 7 16 C7.144375 14.906875 7.28875 13.81375 7.4375 12.6875 C8 9 8 9 9 6 C9.99 6 10.98 6 12 6 C11.34 9.96 10.68 13.92 10 18 C11.32 18.66 12.64 19.32 14 20 C14.12375 18.9275 14.2475 17.855 14.375 16.75 C14.89643936 13.62136385 15.40088254 11.66519576 17 9 C17.99 9 18.98 9 20 9 C19.17812739 13.38332057 18.09845718 17.67940177 17 22 C17.66 22 18.32 22 19 22 C19 22.66 19 23.32 19 24 C15.7 24 12.4 24 9 24 C8.67 22.68 8.34 21.36 8 20 C6.67592331 19.31513275 5.34090759 18.65129797 4 18 C1.21517459 15.18953163 0.07542931 13.64341199 -0.390625 9.66796875 C-0.34421875 8.51941406 -0.2978125 7.37085937 -0.25 6.1875 C-0.21390625 5.02605469 -0.1778125 3.86460938 -0.140625 2.66796875 C-0.07101563 1.34732422 -0.07101563 1.34732422 0 0 Z " fill="#666677" transform="translate(101,102)"/>
<path d="M0 0 C1.125 3.75 1.125 3.75 0 6 C-0.33 8.97 -0.66 11.94 -1 15 C-8.59 15 -16.18 15 -24 15 C-20.78679592 11.78679592 -18.12483702 10.75687503 -14 9 C-13.67 8.34 -13.34 7.68 -13 7 C-14.11375 7.66 -15.2275 8.32 -16.375 9 C-19.75 11 -19.75 11 -22 11 C-22 10.01 -22 9.02 -22 8 C-21.34 8 -20.68 8 -20 8 C-20 7.34 -20 6.68 -20 6 C-19.195625 5.87625 -18.39125 5.7525 -17.5625 5.625 C-16.716875 5.41875 -15.87125 5.2125 -15 5 C-14.67 4.34 -14.34 3.68 -14 3 C-7.375 2.875 -7.375 2.875 -4 4 C-4.33 6.97 -4.66 9.94 -5 13 C-4.01 13 -3.02 13 -2 13 C-2.04125 11.783125 -2.0825 10.56625 -2.125 9.3125 C-2.13754508 5.78105873 -1.59998217 3.19996434 0 0 Z " fill="#777484" transform="translate(37,111)"/>
<path d="M0 0 C0.515625 0.45375 1.03125 0.9075 1.5625 1.375 C4.56936467 3.37957644 7.52480025 4.08202271 11 5 C12 6 12 6 12.09765625 8.06640625 C12.08605469 8.89011719 12.07445313 9.71382812 12.0625 10.5625 C12.05347656 11.38878906 12.04445313 12.21507813 12.03515625 13.06640625 C12.02355469 13.70449219 12.01195313 14.34257813 12 15 C11.34 15 10.68 15 10 15 C10 20.28 10 25.56 10 31 C9.01 31.33 8.02 31.66 7 32 C7 27.71 7 23.42 7 19 C6.34 19 5.68 19 5 19 C4.16142312 16.39741676 3.32896656 13.79314353 2.5 11.1875 C2.14228516 10.08051758 2.14228516 10.08051758 1.77734375 8.95117188 C0.80059864 5.86744804 0 3.25504191 0 0 Z " fill="#7D6F7C" transform="translate(87,94)"/>
<path d="M0 0 C0.185625 0.61875 0.37125 1.2375 0.5625 1.875 C2.71437233 5.05602866 5.37533763 5.19451947 9 6 C8.01 6.33 7.02 6.66 6 7 C6.08378906 7.66386719 6.16757812 8.32773438 6.25390625 9.01171875 C7.26537786 17.78207381 7.26537786 17.78207381 6 22 C3.13275314 21.42655063 2.1385485 21.1385485 0 19 C-0.33 20.65 -0.66 22.3 -1 24 C-1.33 24 -1.66 24 -2 24 C-2.03738281 23.10796875 -2.07476562 22.2159375 -2.11328125 21.296875 C-2.17902344 20.12640625 -2.24476562 18.9559375 -2.3125 17.75 C-2.37050781 16.58984375 -2.42851563 15.4296875 -2.48828125 14.234375 C-3.02758075 10.82567283 -3.85890293 9.59457339 -6 7 C-6 6.01 -6 5.02 -6 4 C-4.35 4 -2.7 4 -1 4 C-0.67 2.68 -0.34 1.36 0 0 Z " fill="#CEB6B1" transform="translate(45,68)"/>
<path d="M0 0 C-0.33 1.32 -0.66 2.64 -1 4 C0.32 4 1.64 4 3 4 C3 3.34 3 2.68 3 2 C9.435 1.505 9.435 1.505 16 1 C16 1.66 16 2.32 16 3 C15.34 3 14.68 3 14 3 C13.7834375 4.175625 13.7834375 4.175625 13.5625 5.375 C12 8 12 8 9.86328125 8.77734375 C7.58025309 9.26835609 5.31304073 9.68112401 3 10 C3 10.99 3 11.98 3 13 C-0.375 13.125 -0.375 13.125 -4 13 C-4.66 12.34 -5.32 11.68 -6 11 C-5.66297118 3.92239468 -5.66297118 3.92239468 -3.5625 1 C-2 0 -2 0 0 0 Z " fill="#C7ACA9" transform="translate(52,61)"/>
<path d="M0 0 C3.96 0 7.92 0 12 0 C11.67 1.65 11.34 3.3 11 5 C9.02 5.66 7.04 6.32 5 7 C5 7.33 5 7.66 5 8 C6.79158489 8.02696365 8.58328473 8.04637917 10.375 8.0625 C11.87160156 8.07990234 11.87160156 8.07990234 13.3984375 8.09765625 C15.98432453 8.18006602 15.98432453 8.18006602 18 7 C17.67 8.65 17.34 10.3 17 12 C16.46890625 11.83628906 15.9378125 11.67257813 15.390625 11.50390625 C12.46123236 10.88643623 9.74177064 10.90498075 6.75 10.9375 C5.13351563 10.95103516 5.13351563 10.95103516 3.484375 10.96484375 C2.25460938 10.98224609 2.25460938 10.98224609 1 11 C0.34 14.3 -0.32 17.6 -1 21 C-3.4375 20.3125 -3.4375 20.3125 -6 19 C-6.8125 16.375 -6.8125 16.375 -7 14 C-6.2575 13.443125 -5.515 12.88625 -4.75 12.3125 C-2.08292005 10.06972822 -0.08443768 7.77925025 2 5 C1.34 3.35 0.68 1.7 0 0 Z " fill="#CEBDBB" transform="translate(56,78)"/>
<path d="M0 0 C1.32 0.66 2.64 1.32 4 2 C3.34 2 2.68 2 2 2 C1.80870801 10.94336398 1.80870801 10.94336398 5.4375 18.75 C7.77169483 20.99171817 7.77169483 20.99171817 10 22 C10.33 23.32 10.66 24.64 11 26 C6.38 26 1.76 26 -3 26 C-2.67 20.39 -2.34 14.78 -2 9 C-1.34 9 -0.68 9 0 9 C0 6.03 0 3.06 0 0 Z " fill="#9494A5" transform="translate(99,100)"/>
<path d="M0 0 C2.4375 0.8125 2.4375 0.8125 5 2 C5.33 2.99 5.66 3.98 6 5 C7.3303125 4.87625 7.3303125 4.87625 8.6875 4.75 C12.69008159 5.05208163 14.12835434 6.29727467 17 9 C16.01 9 15.02 9 14 9 C13.87625 9.515625 13.7525 10.03125 13.625 10.5625 C12.81358372 13.72702351 11.9054087 16.86124985 11 20 C9.68 19.67 8.36 19.34 7 19 C5.81228277 15.57056481 6.19773777 13.62215325 7.4375 10.25 C7.72496094 9.45078125 8.01242188 8.6515625 8.30859375 7.828125 C8.53675781 7.22484375 8.76492187 6.6215625 9 6 C8.01 6 7.02 6 6 6 C5.34 9.3 4.68 12.6 4 16 C2.68 15.34 1.36 14.68 0 14 C0.2475 12.9790625 0.2475 12.9790625 0.5 11.9375 C1.18082756 7.93763809 1.85791887 3.71583773 0 0 Z " fill="#837F8E" transform="translate(104,102)"/>
<path d="M0 0 C2.9765625 2.6640625 2.9765625 2.6640625 3.1875 5.6875 C3.0946875 6.8321875 3.0946875 6.8321875 3 8 C2.34 8 1.68 8 1 8 C1 11.3 1 14.6 1 18 C1.66 18.33 2.32 18.66 3 19 C2.34 19 1.68 19 1 19 C0.7525 19.78375 0.505 20.5675 0.25 21.375 C-1.15389099 24.32317108 -2.00675737 24.9024777 -5 26 C-5 24.68 -5 23.36 -5 22 C-5.66 22 -6.32 22 -7 22 C-7.33 23.65 -7.66 25.3 -8 27 C-8.66 27 -9.32 27 -10 27 C-10.33 29.64 -10.66 32.28 -11 35 C-11.33 35 -11.66 35 -12 35 C-11.67 30.71 -11.34 26.42 -11 22 C-11.66 21.67 -12.32 21.34 -13 21 C-12.360625 20.7525 -11.72125 20.505 -11.0625 20.25 C-8.81258459 19.18437567 -8.81258459 19.18437567 -8.25 16.875 C-8.1675 16.25625 -8.085 15.6375 -8 15 C-7.34 15 -6.68 15 -6 15 C-6 16.32 -6 17.64 -6 19 C-3.92371941 18.63458569 -3.92371941 18.63458569 -2 17 C-1.16743378 14.17084573 -0.97845345 11.30681923 -0.75 8.375 C-0.67265625 7.57320312 -0.5953125 6.77140625 -0.515625 5.9453125 C-0.3270298 3.96506289 -0.1613297 1.98265715 0 0 Z " fill="#CDB5AE" transform="translate(86,50)"/>
<path d="M0 0 C1.32 0 2.64 0 4 0 C7.2986558 3.58317598 9.54417083 8.13782216 10 13 C6.68929162 14.00109515 3.69915231 14.10356134 0.25 14.0625 C-0.73484375 14.05347656 -1.7196875 14.04445313 -2.734375 14.03515625 C-3.48203125 14.02355469 -4.2296875 14.01195312 -5 14 C-5 13.01 -5 12.02 -5 11 C-4.34 10.67 -3.68 10.34 -3 10 C-2.08968728 7.65613191 -2.08968728 7.65613191 -1.375 4.9375 C-1.11460938 4.01839844 -0.85421875 3.09929688 -0.5859375 2.15234375 C-0.39257812 1.44207031 -0.19921875 0.73179688 0 0 Z " fill="#EFDEDB" transform="translate(59,48)"/>
<path d="M0 0 C0.66 0 1.32 0 2 0 C1.67 2.97 1.34 5.94 1 9 C0.01 9.33 -0.98 9.66 -2 10 C-2.33 10.99 -2.66 11.98 -3 13 C-4.32 12.01 -5.64 11.02 -7 10 C-7.99 11.98 -8.98 13.96 -10 16 C-10.99 15.67 -11.98 15.34 -13 15 C-12.34 14.01 -11.68 13.02 -11 12 C-12.32 12.33 -13.64 12.66 -15 13 C-15 11.68 -15 10.36 -15 9 C-13.0625 7.5625 -13.0625 7.5625 -10 6 C-8.41382492 5.13016205 -6.83065787 4.25482392 -5.25 3.375 C-4.47140625 2.94960937 -3.6928125 2.52421875 -2.890625 2.0859375 C-1.05256473 1.13955568 -1.05256473 1.13955568 0 0 Z " fill="#4E3F4C" transform="translate(39,96)"/>
<path d="M0 0 C0.33 0 0.66 0 1 0 C1 32.67 1 65.34 1 99 C-0.32 98.34 -1.64 97.68 -3 97 C-3 96.34 -3 95.68 -3 95 C-2.34 95 -1.68 95 -1 95 C-0.67 63.65 -0.34 32.3 0 0 Z " fill="#E5908E" transform="translate(124,2)"/>
<path d="M0 0 C1.88138672 0.05414063 1.88138672 0.05414063 3.80078125 0.109375 C5.22970703 0.17898437 5.22970703 0.17898437 6.6875 0.25 C6.6875 1.57 6.6875 2.89 6.6875 4.25 C5.6975 4.25 4.7075 4.25 3.6875 4.25 C3.6875 3.26 3.6875 2.27 3.6875 1.25 C1.0475 1.58 -1.5925 1.91 -4.3125 2.25 C-4.3125 2.91 -4.3125 3.57 -4.3125 4.25 C-2.3325 4.25 -0.3525 4.25 1.6875 4.25 C1.0275 5.57 0.3675 6.89 -0.3125 8.25 C-1.9625 8.25 -3.6125 8.25 -5.3125 8.25 C-5.3125 7.92 -5.3125 7.59 -5.3125 7.25 C-6.9625 7.25 -8.6125 7.25 -10.3125 7.25 C-10.6425 9.89 -10.9725 12.53 -11.3125 15.25 C-13.43758244 12.06237635 -13.8145163 9.98487777 -14.3125 6.25 C-13.6525 6.25 -12.9925 6.25 -12.3125 6.25 C-12.3125 5.59 -12.3125 4.93 -12.3125 4.25 C-8.36113792 0.17019977 -5.56572057 -0.20806432 0 0 Z " fill="#AC969C" transform="translate(50.3125,38.75)"/>
<path d="M0 0 C0.33 0 0.66 0 1 0 C1.33 3.96 1.66 7.92 2 12 C1.67 11.34 1.34 10.68 1 10 C0.34 10 -0.32 10 -1 10 C-1.28875 10.5775 -1.5775 11.155 -1.875 11.75 C-2.24625 12.4925 -2.6175 13.235 -3 14 C-3.309375 14.680625 -3.61875 15.36125 -3.9375 16.0625 C-5.05267917 18.09606201 -6.29164135 19.44694668 -8 21 C-8.99 20.34 -9.98 19.68 -11 19 C-10.505 17.515 -10.505 17.515 -10 16 C-9.34 16 -8.68 16 -8 16 C-7.67 14.68 -7.34 13.36 -7 12 C-6.34 12 -5.68 12 -5 12 C-4.9175 11.319375 -4.835 10.63875 -4.75 9.9375 C-3.77667472 6.1253093 -2.04192545 3.35929671 0 0 Z " fill="#E7CCC7" transform="translate(83,81)"/>
<path d="M0 0 C5.445 1.485 5.445 1.485 11 3 C11 3.66 11 4.32 11 5 C10.071875 5.5878125 10.071875 5.5878125 9.125 6.1875 C6.1725005 8.70580839 5.83882956 11.29516943 5 15 C3.0625 14.25 3.0625 14.25 1 13 C-0.48647225 8.76355409 -0.06515448 4.43050484 0 0 Z " fill="#E9D9D6" transform="translate(38,56)"/>
<path d="M0 0 C1.125 3.75 1.125 3.75 0 6 C-0.22467831 7.53668865 -0.40796805 9.07968054 -0.5625 10.625 C-0.7790625 12.790625 -0.7790625 12.790625 -1 15 C-5.29 15 -9.58 15 -14 15 C-13 12 -13 12 -11 10 C-10.3574765 7.93125966 -10.3574765 7.93125966 -10 6 C-8.35 6 -6.7 6 -5 6 C-5 8.31 -5 10.62 -5 13 C-4.01 13 -3.02 13 -2 13 C-2.04125 11.783125 -2.0825 10.56625 -2.125 9.3125 C-2.13754508 5.78105873 -1.59998217 3.19996434 0 0 Z " fill="#807F8E" transform="translate(37,111)"/>
<path d="M0 0 C1.32 0.33 2.64 0.66 4 1 C4 5.62 4 10.24 4 15 C2.35 15 0.7 15 -1 15 C-1 14.34 -1 13.68 -1 13 C-1.66 13 -2.32 13 -3 13 C-2.52060632 8.28596212 -2.03165952 4.33420699 0 0 Z " fill="#867684" transform="translate(121,111)"/>
<path d="M0 0 C-0.125 2.8125 -0.125 2.8125 -1 6 C-3.875 7.9375 -3.875 7.9375 -7 9 C-7.99 8.67 -8.98 8.34 -10 8 C-10 7.01 -10 6.02 -10 5 C-10.66 5 -11.32 5 -12 5 C-11.67 3.35 -11.34 1.7 -11 0 C-6.98195309 -0.84098656 -3.98196457 -1.05404945 0 0 Z " fill="#A38E8A" transform="translate(71,90)"/>
<path d="M0 0 C0.99 0 1.98 0 3 0 C2.17812739 4.38332057 1.09845718 8.67940177 0 13 C0.66 13 1.32 13 2 13 C2 13.66 2 14.32 2 15 C-1.3 15 -4.6 15 -8 15 C-8 14.01 -8 13.02 -8 12 C-7.01 12.33 -6.02 12.66 -5 13 C-5 12.34 -5 11.68 -5 11 C-4.34 11 -3.68 11 -3 11 C-2.814375 9.39125 -2.814375 9.39125 -2.625 7.75 C-2.10356064 4.62136385 -1.59911746 2.66519576 0 0 Z " fill="#645A6A" transform="translate(118,111)"/>
<path d="M0 0 C1.32 0.66 2.64 1.32 4 2 C4.375 4.25 4.375 4.25 4 7 C-0.97297297 11 -0.97297297 11 -4 11 C-4.33 10.34 -4.66 9.68 -5 9 C-7.01669827 7.86649466 -7.01669827 7.86649466 -9 7 C-7.68 7 -6.36 7 -5 7 C-5 5.68 -5 4.36 -5 3 C-3.35 3 -1.7 3 0 3 C0 2.01 0 1.02 0 0 Z " fill="#B39392" transform="translate(74,62)"/>
<path d="M0 0 C0.66 0 1.32 0 2 0 C2.33 0.66 2.66 1.32 3 2 C7.62 2 12.24 2 17 2 C16.67 3.32 16.34 4.64 16 6 C12.0644681 7.96776595 7.2799483 7.59659885 3 7 C0.73702662 4.54305747 0 3.3203746 0 0 Z " fill="#E1C8C7" transform="translate(65,48)"/>
<path d="M0 0 C3.9492568 0.55105909 7.34920174 1.38935371 11 3 C11 4.65 11 6.3 11 8 C10.01 8.495 10.01 8.495 9 9 C8.67 7.68 8.34 6.36 8 5 C6.35 4.67 4.7 4.34 3 4 C3.33 5.65 3.66 7.3 4 9 C1.69 9 -0.62 9 -3 9 C-2.34 7.02 -1.68 5.04 -1 3 C-0.34 3 0.32 3 1 3 C0.67 2.01 0.34 1.02 0 0 Z " fill="#9B8081" transform="translate(74,39)"/>
<path d="M0 0 C0.90363281 0.08378906 1.80726562 0.16757812 2.73828125 0.25390625 C3.91777344 0.35574219 5.09726562 0.45757812 6.3125 0.5625 C7.48425781 0.66691406 8.65601563 0.77132812 9.86328125 0.87890625 C13.03032575 1.18577434 13.03032575 1.18577434 16 0 C15.125 3.875 15.125 3.875 14 5 C11.81360547 5.07258946 9.62499611 5.08373783 7.4375 5.0625 C5.64119141 5.04896484 5.64119141 5.04896484 3.80859375 5.03515625 C2.88175781 5.02355469 1.95492187 5.01195312 1 5 C0.67 3.35 0.34 1.7 0 0 Z " fill="#EAD8D7" transform="translate(40,51)"/>
<path d="M0 0 C0.33 0 0.66 0 1 0 C2.56727931 6.99247691 2.56727931 6.99247691 0.98828125 9.796875 C-0.27430653 11.25843793 -1.63429613 12.63429613 -3 14 C-4.1482685 16.296537 -4.11561175 17.58313167 -4.09765625 20.1328125 C-4.09443359 20.93847656 -4.09121094 21.74414062 -4.08789062 22.57421875 C-4.07951172 23.41597656 -4.07113281 24.25773437 -4.0625 25.125 C-4.05573242 26.39923828 -4.05573242 26.39923828 -4.04882812 27.69921875 C-4.03702874 29.79950909 -4.01909306 31.8997633 -4 34 C-4.33 34 -4.66 34 -5 34 C-5.39096459 31.27227014 -5.76316706 28.54411534 -6.125 25.8125 C-6.29322266 24.65911133 -6.29322266 24.65911133 -6.46484375 23.48242188 C-7.2478539 17.40104305 -6.44611023 14.16916535 -3 9 C-2.34 9 -1.68 9 -1 9 C-0.67 6.03 -0.34 3.06 0 0 Z " fill="#E39B98" transform="translate(90,60)"/>
<path d="M0 0 C1.4606285 2.64738916 2 3.89448334 2 7 C-1.06246747 8.78409802 -3.22079273 9.22880021 -6.75 9.125 C-7.54921875 9.10695313 -8.3484375 9.08890625 -9.171875 9.0703125 C-9.77515625 9.04710938 -10.3784375 9.02390625 -11 9 C-10.34 8.67 -9.68 8.34 -9 8 C-9 7.34 -9 6.68 -9 6 C-8.01 6 -7.02 6 -6 6 C-5.938125 5.38125 -5.87625 4.7625 -5.8125 4.125 C-5 2 -5 2 -2.4375 0.75 C-1.633125 0.5025 -0.82875 0.255 0 0 Z " fill="#737281" transform="translate(11,117)"/>
<path d="M0 0 C3.875 0.875 3.875 0.875 5 2 C5.41199125 7.2528884 4.65673037 10.46141895 2 15 C0 13 0 13 -0.1953125 9.9609375 C-0.17210938 8.77757813 -0.14890625 7.59421875 -0.125 6.375 C-0.10695313 5.18648438 -0.08890625 3.99796875 -0.0703125 2.7734375 C-0.04710938 1.85820313 -0.02390625 0.94296875 0 0 Z " fill="#7F717F" transform="translate(101,102)"/>
<path d="M0 0 C0.66 0 1.32 0 2 0 C1.67 2.97 1.34 5.94 1 9 C0.01 9.33 -0.98 9.66 -2 10 C-2.33 10.99 -2.66 11.98 -3 13 C-3.99 12.01 -4.98 11.02 -6 10 C-5.38003922 8.70590711 -4.75383647 7.41480327 -4.125 6.125 C-3.77695312 5.40570313 -3.42890625 4.68640625 -3.0703125 3.9453125 C-2 2 -2 2 0 0 Z " fill="#4E3D41" transform="translate(39,96)"/>
<path d="M0 0 C4.88757373 4.49128396 7.85930152 8.0922314 8.1875 14.875 C8.125625 15.90625 8.06375 16.9375 8 18 C4.51619164 16.25809582 3.42060577 12.49329287 2 9 C1.17327773 6.02379983 0.53505353 3.0413569 0 0 Z " fill="#685052" transform="translate(87,94)"/>
<path d="M0 0 C1.66611905 -0.042721 3.33382885 -0.04063832 5 0 C6 1 6 1 6.09765625 2.84765625 C6.04882812 5.92382812 6.04882812 5.92382812 6 9 C5.67 8.34 5.34 7.68 5 7 C2.69 7.33 0.38 7.66 -2 8 C-2 7.34 -2 6.68 -2 6 C-3.32 5.67 -4.64 5.34 -6 5 C-3.69 5 -1.38 5 1 5 C0.67 3.35 0.34 1.7 0 0 Z " fill="#CBADAE" transform="translate(77,43)"/>
<path d="M0 0 C1.4540625 0.0309375 1.4540625 0.0309375 2.9375 0.0625 C-0.0625 2.0625 -0.0625 2.0625 -2.0625 2.0625 C-2.0625 3.0525 -2.0625 4.0425 -2.0625 5.0625 C-3.0525 5.0625 -4.0425 5.0625 -5.0625 5.0625 C-5.3925 6.3825 -5.7225 7.7025 -6.0625 9.0625 C-7.3825 9.3925 -8.7025 9.7225 -10.0625 10.0625 C-10.3925 8.0825 -10.7225 6.1025 -11.0625 4.0625 C-9.928125 3.588125 -8.79375 3.11375 -7.625 2.625 C-1.72003425 0.03510274 -1.72003425 0.03510274 0 0 Z " fill="#644956" transform="translate(11.0625,111.9375)"/>
<path d="M0 0 C0.66 0 1.32 0 2 0 C2.33 0.99 2.66 1.98 3 3 C6.51190809 4.22969878 6.51190809 4.22969878 10 5 C10 5.66 10 6.32 10 7 C7.69 7 5.38 7 3 7 C2.67 6.01 2.34 5.02 2 4 C1.34 4 0.68 4 0 4 C1.6380249 7.51005335 3.03134491 10.45543849 6 13 C2.66701453 12.76192961 1.89574583 11.88202817 -0.375 9.3125 C-2 6 -2 6 -1.25 2.625 C-0.8375 1.75875 -0.425 0.8925 0 0 Z " fill="#B08F8E" transform="translate(65,44)"/>
<path d="M0 0 C3.96 0 7.92 0 12 0 C11.67 1.65 11.34 3.3 11 5 C8.69 5 6.38 5 4 5 C3.67 4.01 3.34 3.02 3 2 C2.01 2 1.02 2 0 2 C0 1.34 0 0.68 0 0 Z " fill="#B29596" transform="translate(56,78)"/>
<path d="M0 0 C1.32 0.66 2.64 1.32 4 2 C3.34 2 2.68 2 2 2 C2.33 4.97 2.66 7.94 3 11 C2.01 11.33 1.02 11.66 0 12 C0.01160156 12.75925781 0.02320312 13.51851562 0.03515625 14.30078125 C0.04417969 15.29464844 0.05320312 16.28851563 0.0625 17.3125 C0.07410156 18.29863281 0.08570312 19.28476563 0.09765625 20.30078125 C0 23 0 23 -1 26 C-1.66 25.67 -2.32 25.34 -3 25 C-2.67 19.72 -2.34 14.44 -2 9 C-1.34 9 -0.68 9 0 9 C0 6.03 0 3.06 0 0 Z " fill="#847988" transform="translate(99,100)"/>
<path d="M0 0 C0.33 0 0.66 0 1 0 C1.1958009 1.91583647 1.38132214 3.83272539 1.5625 5.75 C1.66691406 6.81734375 1.77132812 7.8846875 1.87890625 8.984375 C1.98560074 11.64141204 1.81930395 13.49960572 1 16 C0.01 16 -0.98 16 -2 16 C-2.05423638 14.08364783 -2.09289963 12.16685075 -2.125 10.25 C-2.14820313 9.18265625 -2.17140625 8.1153125 -2.1953125 7.015625 C-2.00487687 4.07529894 -1.52670104 2.47638122 0 0 Z " fill="#ECC2BE" transform="translate(37,29)"/>
<path d="M0 0 C0.99 0.33 1.98 0.66 3 1 C3.33 6.94 3.66 12.88 4 19 C3.34 18.67 2.68 18.34 2 18 C0.13639409 12.09858129 -0.22742222 6.14040005 0 0 Z " fill="#EFC4BE" transform="translate(33,49)"/>
<path d="M0 0 C0.99 0 1.98 0 3 0 C3.05422947 1.4370809 3.09289723 2.87475462 3.125 4.3125 C3.14820313 5.11300781 3.17140625 5.91351563 3.1953125 6.73828125 C3 9 3 9 1 12 C0.01 11.67 -0.98 11.34 -2 11 C-1.01 9.35 -0.02 7.7 1 6 C0.01 6.495 0.01 6.495 -1 7 C-4 7.25 -4 7.25 -7 7 C-7.66 6.01 -8.32 5.02 -9 4 C-5.7 4 -2.4 4 1 4 C0.67 2.68 0.34 1.36 0 0 Z " fill="#B69696" transform="translate(55,45)"/>
<path d="M0 0 C1.32 0.66 2.64 1.32 4 2 C3.34 5.3 2.68 8.6 2 12 C0.68 11.34 -0.64 10.68 -2 10 C-1.34 6.7 -0.68 3.4 0 0 Z " fill="#9B97A7" transform="translate(106,106)"/>
<path d="M0 0 C1.65 0.33 3.3 0.66 5 1 C5 1.66 5 2.32 5 3 C4.34 3 3.68 3 3 3 C2.67 4.32 2.34 5.64 2 7 C2.66 7.33 3.32 7.66 4 8 C2.02 8.33 0.04 8.66 -2 9 C-2 5.20442119 -1.49821059 3.37097383 0 0 Z " fill="#725559" transform="translate(70,39)"/>
<path d="M0 0 C1.98 0 3.96 0 6 0 C5.34 1.65 4.68 3.3 4 5 C4.7425 4.938125 5.485 4.87625 6.25 4.8125 C9.45383006 5.03094296 10.64031256 5.90250005 13 8 C7.76824163 8.38281159 4.62197306 7.21854707 0 5 C0 3.35 0 1.7 0 0 Z " fill="#CDAFAE" transform="translate(40,45)"/>
<path d="M0 0 C2.4375 0.8125 2.4375 0.8125 5 2 C5.33 2.99 5.66 3.98 6 5 C7.3303125 4.87625 7.3303125 4.87625 8.6875 4.75 C12.69008159 5.05208163 14.12835434 6.29727467 17 9 C16.01 9 15.02 9 14 9 C13.67 9.99 13.34 10.98 13 12 C12.67 11.01 12.34 10.02 12 9 C11.01 8.67 10.02 8.34 9 8 C9 7.34 9 6.68 9 6 C8.2575 5.9175 7.515 5.835 6.75 5.75 C3.47402617 4.85655259 2.16408188 3.56483779 0 1 C0 0.67 0 0.34 0 0 Z " fill="#AD7680" transform="translate(104,102)"/>
<path d="M0 0 C0.66 0 1.32 0 2 0 C2.125 7.75 2.125 7.75 1 10 C0.34 10 -0.32 10 -1 10 C-1 9.34 -1 8.68 -1 8 C-1.66 8 -2.32 8 -3 8 C-2.25 2.25 -2.25 2.25 0 0 Z " fill="#9C97A8" transform="translate(121,116)"/>
<path d="M0 0 C0.99 0 1.98 0 3 0 C3 0.66 3 1.32 3 2 C2.34 2 1.68 2 1 2 C0.34 3.32 -0.32 4.64 -1 6 C-4.71599191 6.20086443 -5.77208445 6.1519437 -9 4 C-9 3.34 -9 2.68 -9 2 C-7.329375 2.061875 -7.329375 2.061875 -5.625 2.125 C-1.95633975 2.41121859 -1.95633975 2.41121859 0 0 Z " fill="#937776" transform="translate(65,62)"/>
<path d="M0 0 C-1.3881735 3.12857014 -3.01101878 5.28189174 -5.4375 7.6875 C-6.03433594 8.28949219 -6.63117187 8.89148438 -7.24609375 9.51171875 C-9 11 -9 11 -12 12 C-10.82763323 7.16398706 -5.40844892 0 0 0 Z " fill="#F4D4CE" transform="translate(50,17)"/>
<path d="M0 0 C4.69360269 2.17508418 4.69360269 2.17508418 5.8125 5.1875 C5.874375 5.785625 5.93625 6.38375 6 7 C3.69 7 1.38 7 -1 7 C-1.33 5.02 -1.66 3.04 -2 1 C-1.34 0.67 -0.68 0.34 0 0 Z " fill="#848595" transform="translate(104,119)"/>
<path d="M0 0 C-0.875 4.75 -0.875 4.75 -2 7 C-4.0625 7.625 -4.0625 7.625 -6 8 C-6 7.01 -6 6.02 -6 5 C-7.32 4.67 -8.64 4.34 -10 4 C-8.71086513 3.32845067 -7.41859796 2.66291141 -6.125 2 C-5.40570312 1.62875 -4.68640625 1.2575 -3.9453125 0.875 C-2 0 -2 0 0 0 Z " fill="#61444E" transform="translate(36,99)"/>
<path d="M0 0 C0 0.99 0 1.98 0 3 C-5.94 3.495 -5.94 3.495 -12 4 C-12 3.01 -12 2.02 -12 1 C-7.58774263 -0.47075246 -4.51718381 -1.36884358 0 0 Z " fill="#806266" transform="translate(56,46)"/>
<path d="M0 0 C0.99 0 1.98 0 3 0 C3 0.99 3 1.98 3 3 C3.66 3 4.32 3 5 3 C4.67 4.32 4.34 5.64 4 7 C3.34 7 2.68 7 2 7 C1.67 9.64 1.34 12.28 1 15 C0.67 15 0.34 15 0 15 C0.33 10.71 0.66 6.42 1 2 C0.34 1.67 -0.32 1.34 -1 1 C-0.67 0.67 -0.34 0.34 0 0 Z " fill="#C8B1AE" transform="translate(74,70)"/>
<path d="M0 0 C0.33 0.99 0.66 1.98 1 3 C2.65948148 4.01187895 4.32580562 5.0126546 6 6 C6 6.66 6 7.32 6 8 C3.66705225 8.04241723 1.33297433 8.04092937 -1 8 C-2 7 -2 7 -2.1875 4.5625 C-2 2 -2 2 0 0 Z " fill="#9E817D" transform="translate(48,65)"/>
<path d="M0 0 C2.64 0.99 5.28 1.98 8 3 C8.17700355 7.60209225 8.10814567 9.78370866 6 14 C5.67 10.7 5.34 7.4 5 4 C3.35 3.67 1.7 3.34 0 3 C0 2.01 0 1.02 0 0 Z " fill="#E0A9A8" transform="translate(85,43)"/>
<path d="M0 0 C0.33 0.66 0.66 1.32 1 2 C0.67 2.99 0.34 3.98 0 5 C0.66 5 1.32 5 2 5 C2 5.66 2 6.32 2 7 C-1.3 7 -4.6 7 -8 7 C-8 6.01 -8 5.02 -8 4 C-7.01 4.33 -6.02 4.66 -5 5 C-5 4.34 -5 3.68 -5 3 C-4.01 3 -3.02 3 -2 3 C-1.34 2.01 -0.68 1.02 0 0 Z " fill="#6D6D7A" transform="translate(118,119)"/>
<path d="M0 0 C2.31 0 4.62 0 7 0 C7 1.65 7 3.3 7 5 C5.35 4.67 3.7 4.34 2 4 C1.67 5.65 1.34 7.3 1 9 C0.08941469 5.92677456 -0.08886184 3.19902639 0 0 Z " fill="#68575B" transform="translate(57,44)"/>
<path d="M0 0 C1.88138672 0.05414063 1.88138672 0.05414063 3.80078125 0.109375 C5.22970703 0.17898437 5.22970703 0.17898437 6.6875 0.25 C6.6875 1.57 6.6875 2.89 6.6875 4.25 C5.6975 4.25 4.7075 4.25 3.6875 4.25 C3.6875 3.26 3.6875 2.27 3.6875 1.25 C2.08232903 1.33733576 0.47828338 1.44552224 -1.125 1.5625 C-2.01832031 1.62050781 -2.91164063 1.67851563 -3.83203125 1.73828125 C-6.61854 2.31313581 -7.55385754 3.0706856 -9.3125 5.25 C-10.3025 4.92 -11.2925 4.59 -12.3125 4.25 C-8.22498346 0.27971625 -5.63030128 -0.21047855 0 0 Z " fill="#CBBABA" transform="translate(50.3125,38.75)"/>
<path d="M0 0 C1.38609004 3.15020465 0.89180331 4.31918022 -0.25 7.6875 C-2 11 -2 11 -5 12 C-4.67 10.68 -4.34 9.36 -4 8 C-3.34 8 -2.68 8 -2 8 C-1.855625 7.236875 -1.71125 6.47375 -1.5625 5.6875 C-1 3 -1 3 0 0 Z M-7 12 C-6.34 12 -5.68 12 -5 12 C-5.33 13.32 -5.66 14.64 -6 16 C-6.66 15.67 -7.32 15.34 -8 15 C-7.67 14.01 -7.34 13.02 -7 12 Z " fill="#D4B9B3" transform="translate(80,85)"/>
<path d="M0 0 C3 3 3 3 3.1875 5.6875 C3.125625 6.450625 3.06375 7.21375 3 8 C2.34 8 1.68 8 1 8 C1.061875 9.423125 1.061875 9.423125 1.125 10.875 C1 14 1 14 -1 16 C-0.67 10.72 -0.34 5.44 0 0 Z " fill="#DDC2BF" transform="translate(86,50)"/>
<path d="M0 0 C-0.33 1.32 -0.66 2.64 -1 4 C-4.63 4 -8.26 4 -12 4 C-7.82050327 1.21366885 -5.06624674 0 0 0 Z " fill="#F0DEDB" transform="translate(82,50)"/>
<path d="M0 0 C4.62 0 9.24 0 14 0 C14.33 0.66 14.66 1.32 15 2 C11.04 2 7.08 2 3 2 C2.67 2.99 2.34 3.98 2 5 C0.68 5 -0.64 5 -2 5 C-1.34 3.35 -0.68 1.7 0 0 Z " fill="#C9B8B7" transform="translate(65,38)"/>
<path d="M0 0 C1.73684533 3.47369066 2.30084112 5.07619937 2.625 8.75 C2.69976562 9.54921875 2.77453125 10.3484375 2.8515625 11.171875 C2.92503906 12.07679687 2.92503906 12.07679687 3 13 C2.39671875 12.69320312 1.7934375 12.38640625 1.171875 12.0703125 C-1.17475573 10.91387937 -3.5626303 9.947866 -6 9 C-4 8 -4 8 0 9 C0 6.03 0 3.06 0 0 Z " fill="#E8CECF" transform="translate(86,32)"/>
<path d="M0 0 C1.125 3.75 1.125 3.75 0 6 C-0.22467831 7.53668865 -0.40796805 9.07968054 -0.5625 10.625 C-0.64628906 11.44226563 -0.73007812 12.25953125 -0.81640625 13.1015625 C-0.87699219 13.72804688 -0.93757813 14.35453125 -1 15 C-2.98 15 -4.96 15 -7 15 C-6.34 13.68 -5.68 12.36 -5 11 C-5 11.66 -5 12.32 -5 13 C-4.01 13 -3.02 13 -2 13 C-2.04125 11.783125 -2.0825 10.56625 -2.125 9.3125 C-2.13754508 5.78105873 -1.59998217 3.19996434 0 0 Z " fill="#797785" transform="translate(37,111)"/>
<path d="M0 0 C0.99 0 1.98 0 3 0 C2.74445946 1.46109063 2.46999628 2.91888096 2.1875 4.375 C2.03667969 5.18710938 1.88585937 5.99921875 1.73046875 6.8359375 C1 9 1 9 -2 11 C-2.19622241 6.78121808 -1.80230168 3.82989106 0 0 Z " fill="#585160" transform="translate(110,108)"/>
<path d="M0 0 C2.64 0.33 5.28 0.66 8 1 C8 1.99 8 2.98 8 4 C6.02 4.33 4.04 4.66 2 5 C1.34 3.35 0.68 1.7 0 0 Z " fill="#93807C" transform="translate(61,91)"/>
<path d="M0 0 C0.66 0 1.32 0 2 0 C0.7792482 5.08646583 -0.71919558 8.79646933 -4 13 C-4.66 13 -5.32 13 -6 13 C-6 11.68 -6 10.36 -6 9 C-5.01 9 -4.02 9 -3 9 C-2.87625 8.443125 -2.7525 7.88625 -2.625 7.3125 C-1.94023145 4.77885636 -1.00866237 2.42078968 0 0 Z " fill="#AD908A" transform="translate(82,77)"/>
<path d="M0 0 C2.64 0.66 5.28 1.32 8 2 C8 2.33 8 2.66 8 3 C5.03 3.66 2.06 4.32 -1 5 C-1 5.99 -1 6.98 -1 8 C-3.31 8 -5.62 8 -8 8 C-8 7.67 -8 7.34 -8 7 C-6.02 7 -4.04 7 -2 7 C-2 6.34 -2 5.68 -2 5 C-2.66 4.67 -3.32 4.34 -4 4 C-3.01 3.67 -2.02 3.34 -1 3 C-0.67 2.01 -0.34 1.02 0 0 Z " fill="#BA9998" transform="translate(56,66)"/>
<path d="M0 0 C3.9492568 0.55105909 7.34920174 1.38935371 11 3 C11 4.65 11 6.3 11 8 C10.01 8.495 10.01 8.495 9 9 C8.67 7.68 8.34 6.36 8 5 C7.236875 4.9175 6.47375 4.835 5.6875 4.75 C2.47626739 3.85384206 1.70625501 2.78388975 0 0 Z " fill="#9E8E93" transform="translate(74,39)"/>
<path d="M0 0 C1.35015859 4.05047576 0.62084998 6.7920168 0 11 C-0.99 11 -1.98 11 -3 11 C-3.6875 9.375 -3.6875 9.375 -4 7 C-1.72413793 1.72413793 -1.72413793 1.72413793 0 0 Z " fill="#5C5A69" transform="translate(35,113)"/>
<path d="M0 0 C0 0.66 0 1.32 0 2 C-2.99480917 2.8723412 -5.63575911 3.10829766 -8.75 3.0625 C-9.54921875 3.05347656 -10.3484375 3.04445313 -11.171875 3.03515625 C-11.77515625 3.02355469 -12.3784375 3.01195313 -13 3 C-13.33 2.34 -13.66 1.68 -14 1 C-9.27616037 0.34843591 -4.78025483 -0.11950637 0 0 Z " fill="#E9D5D1" transform="translate(69,71)"/>
<path d="M0 0 C0.66 0 1.32 0 2 0 C2 3.96 2 7.92 2 12 C1.01 12.33 0.02 12.66 -1 13 C-0.67 8.71 -0.34 4.42 0 0 Z " fill="#5C5B6B" transform="translate(95,113)"/>
<path d="M0 0 C0.33 0.99 0.66 1.98 1 3 C1.66 3 2.32 3 3 3 C3 3.99 3 4.98 3 6 C1 7.6875 1 7.6875 -1 9 C-1.66 8.67 -2.32 8.34 -3 8 C-3 6.68 -3 5.36 -3 4 C-2.34 4 -1.68 4 -1 4 C-0.67 2.68 -0.34 1.36 0 0 Z " fill="#B8A19B" transform="translate(75,87)"/>
<path d="M0 0 C0.99 0.33 1.98 0.66 3 1 C3.3125 3.3125 3.3125 3.3125 3 6 C0.6167054 7.81883009 -0.95818337 9 -4 9 C-4 8.01 -4 7.02 -4 6 C-3.01 6 -2.02 6 -1 6 C-1 5.34 -1 4.68 -1 4 C-0.34 4 0.32 4 1 4 C0.67 2.68 0.34 1.36 0 0 Z " fill="#8F6F6D" transform="translate(75,63)"/>
<path d="M0 0 C0.99 0.33 1.98 0.66 3 1 C2.67 2.32 2.34 3.64 2 5 C2.66 5.33 3.32 5.66 4 6 C0.25 9 0.25 9 -2 9 C-1.34 6.03 -0.68 3.06 0 0 Z " fill="#E3E2EE" transform="translate(39,112)"/>
<path d="M0 0 C0.99 0 1.98 0 3 0 C3.66666667 1.33333333 4.33333333 2.66666667 5 4 C2.69 5.32 0.38 6.64 -2 8 C-2 6.68 -2 5.36 -2 4 C-1.34 4 -0.68 4 0 4 C0 2.68 0 1.36 0 0 Z " fill="#C3ABA3" transform="translate(70,93)"/>
<path d="M0 0 C0.33 0 0.66 0 1 0 C1 6.27 1 12.54 1 19 C-0.32 18.34 -1.64 17.68 -3 17 C-3 16.34 -3 15.68 -3 15 C-2.34 15 -1.68 15 -1 15 C-0.67 10.05 -0.34 5.1 0 0 Z " fill="#EB9491" transform="translate(124,82)"/>
<path d="M0 0 C0 0.99 0 1.98 0 3 C-3.37362154 5.60250805 -5.76907828 6.36265043 -10 6 C-7.27521226 2.63408573 -3.93143208 1.55773724 0 0 Z " fill="#6B6A7A" transform="translate(23,120)"/>
<path d="M0 0 C0.66 0 1.32 0 2 0 C1.38461538 6.52307692 1.38461538 6.52307692 -0.5625 8.9375 C-1.036875 9.288125 -1.51125 9.63875 -2 10 C-2.33 8.35 -2.66 6.7 -3 5 C-2.34 5 -1.68 5 -1 5 C-0.67 3.35 -0.34 1.7 0 0 Z " fill="#9D95A6" transform="translate(115,111)"/>
<path d="M0 0 C0.33 0 0.66 0 1 0 C1.75 3.1875 1.75 3.1875 2 7 C0.0625 9.9375 0.0625 9.9375 -2 12 C-2.05422947 10.5629191 -2.09289723 9.12524538 -2.125 7.6875 C-2.14820312 6.88699219 -2.17140625 6.08648437 -2.1953125 5.26171875 C-2 3 -2 3 0 0 Z " fill="#8F8E9F" transform="translate(100,109)"/>
<path d="M0 0 C0.66 1.32 1.32 2.64 2 4 C1.01 4.66 0.02 5.32 -1 6 C-1 5.34 -1 4.68 -1 4 C-3.31 4 -5.62 4 -8 4 C-8.33 4.66 -8.66 5.32 -9 6 C-9 4.35 -9 2.7 -9 1 C-8.67 1.66 -8.34 2.32 -8 3 C-3.66770285 2.1395861 -3.66770285 2.1395861 0 0 Z " fill="#625D6B" transform="translate(31,110)"/>
<path d="M0 0 C0.66 0 1.32 0 2 0 C2.19491452 1.45736087 2.38069358 2.91594593 2.5625 4.375 C2.66691406 5.18710938 2.77132812 5.99921875 2.87890625 6.8359375 C3 9 3 9 2 11 C1.34 11 0.68 11 0 11 C0 7.37 0 3.74 0 0 Z " fill="#544F5E" transform="translate(101,103)"/>
<path d="M0 0 C2.60334924 2.71182212 2.99456691 3.89133813 3.1875 7.75 C3.125625 8.8225 3.06375 9.895 3 11 C1 10 1 10 -0.1875 6.625 C-1 3 -1 3 0 0 Z " fill="#584A51" transform="translate(92,101)"/>
<path d="M0 0 C0.185625 0.9590625 0.185625 0.9590625 0.375 1.9375 C0.684375 2.9584375 0.684375 2.9584375 1 4 C1.66 4.33 2.32 4.66 3 5 C2.34 5 1.68 5 1 5 C0.34 6.32 -0.32 7.64 -1 9 C-1.66 8.67 -2.32 8.34 -3 8 C-2.45276317 4.62537285 -1.9451 2.91765 0 0 Z " fill="#D8B8B3" transform="translate(86,64)"/>
<path d="M0 0 C0.763125 0.20625 1.52625 0.4125 2.3125 0.625 C1.9825 2.605 1.6525 4.585 1.3125 6.625 C0.3225 6.295 -0.6675 5.965 -1.6875 5.625 C-1.0275 5.625 -0.3675 5.625 0.3125 5.625 C0.3125 4.635 0.3125 3.645 0.3125 2.625 C-2.6575 2.13 -2.6575 2.13 -5.6875 1.625 C-2.6875 -0.375 -2.6875 -0.375 0 0 Z " fill="#A89692" transform="translate(68.6875,89.375)"/>
<path d="M0 0 C0.99 0.33 1.98 0.66 3 1 C5.14255793 0.61067144 5.14255793 0.61067144 7 0 C6.67 1.32 6.34 2.64 6 4 C4.02 4 2.04 4 0 4 C0 2.68 0 1.36 0 0 Z " fill="#E4D2D0" transform="translate(57,39)"/>
<path d="M0 0 C1.2065625 0.0309375 1.2065625 0.0309375 2.4375 0.0625 C2.4375 1.0525 2.4375 2.0425 2.4375 3.0625 C1.1175 3.0625 -0.2025 3.0625 -1.5625 3.0625 C-1.8925 4.0525 -2.2225 5.0425 -2.5625 6.0625 C-2.94468767 4.40635343 -3.27645102 2.73792976 -3.5625 1.0625 C-2.5625 0.0625 -2.5625 0.0625 0 0 Z " fill="#A09FAF" transform="translate(29.5625,116.9375)"/>
<path d="M0 0 C0.33 0 0.66 0 1 0 C1.08121924 1.60332791 1.13929134 3.20784026 1.1875 4.8125 C1.23970703 6.15248047 1.23970703 6.15248047 1.29296875 7.51953125 C0.95081002 10.41647515 0.24606427 11.22555028 -2 13 C-1.85769192 11.58297487 -1.71099254 10.1663904 -1.5625 8.75 C-1.48128906 7.96109375 -1.40007813 7.1721875 -1.31640625 6.359375 C-1.02365007 4.17635361 -0.57935581 2.1226818 0 0 Z " fill="#C0B0AF" transform="translate(40,101)"/>
<path d="M0 0 C1.98 0.495 1.98 0.495 4 1 C3.01 1 2.02 1 1 1 C1.20625 2.093125 1.4125 3.18625 1.625 4.3125 C2 8 2 8 0 11 C-0.84098656 6.98195309 -1.05404945 3.98196457 0 0 Z " fill="#D4BEB9" transform="translate(50,74)"/>
<path d="M0 0 C0.33 0.66 0.66 1.32 1 2 C1.99 2.33 2.98 2.66 4 3 C4 3.99 4 4.98 4 6 C2.68 6 1.36 6 0 6 C0 5.34 0 4.68 0 4 C-1.32 3.67 -2.64 3.34 -4 3 C-2.68 3 -1.36 3 0 3 C0 2.01 0 1.02 0 0 Z " fill="#D9BEBC" transform="translate(69,58)"/>
<path d="M0 0 C0.66 0 1.32 0 2 0 C2 2.64 2 5.28 2 8 C1.67 7.34 1.34 6.68 1 6 C-0.98 6.33 -2.96 6.66 -5 7 C-4.67 6.34 -4.34 5.68 -4 5 C-2.68 5 -1.36 5 0 5 C-0.2784375 4.0409375 -0.2784375 4.0409375 -0.5625 3.0625 C-0.706875 2.381875 -0.85125 1.70125 -1 1 C-0.67 0.67 -0.34 0.34 0 0 Z " fill="#D9C0BF" transform="translate(81,44)"/>
<path d="M0 0 C1.98 0 3.96 0 6 0 C5.67 1.98 5.34 3.96 5 6 C4.01 6 3.02 6 2 6 C1.34 4.02 0.68 2.04 0 0 Z " fill="#E7C9C8" transform="translate(85,46)"/>
<path d="M0 0 C2.475 0.495 2.475 0.495 5 1 C5 1.66 5 2.32 5 3 C4.34 3 3.68 3 3 3 C2.67 3.99 2.34 4.98 2 6 C1.34 5.34 0.68 4.68 0 4 C0 2.68 0 1.36 0 0 Z " fill="#816C6E" transform="translate(70,39)"/>
<path d="M0 0 C1.32 0 2.64 0 4 0 C4 0.99 4 1.98 4 3 C2.02 3.66 0.04 4.32 -2 5 C-2 4.01 -2 3.02 -2 2 C-1.34 2 -0.68 2 0 2 C0 1.34 0 0.68 0 0 Z " fill="#7B7889" transform="translate(17,117)"/>
<path d="M0 0 C0.33 0.66 0.66 1.32 1 2 C3.52733235 2.65555119 3.52733235 2.65555119 6 3 C4.68 3.33 3.36 3.66 2 4 C2 4.66 2 5.32 2 6 C1.34 6 0.68 6 0 6 C-0.38218767 4.34385343 -0.71395102 2.67542976 -1 1 C-0.67 0.67 -0.34 0.34 0 0 Z " fill="#6A6374" transform="translate(15,113)"/>
<path d="M0 0 C0.33 0.66 0.66 1.32 1 2 C2.65 2 4.3 2 6 2 C6 2.33 6 2.66 6 3 C4.35 3 2.7 3 1 3 C1 3.66 1 4.32 1 5 C-0.65 5.33 -2.3 5.66 -4 6 C-3.34 4.68 -2.68 3.36 -2 2 C-1.34 2 -0.68 2 0 2 C0 1.34 0 0.68 0 0 Z " fill="#BB9FA0" transform="translate(68,62)"/>
<path d="M0 0 C-0.3125 1.9375 -0.3125 1.9375 -1 4 C-1.99 4.33 -2.98 4.66 -4 5 C-4 4.34 -4 3.68 -4 3 C-5.65 3 -7.3 3 -9 3 C-9 2.67 -9 2.34 -9 2 C-2.25 0 -2.25 0 0 0 Z " fill="#E5CDCC" transform="translate(56,51)"/>
<path d="M0 0 C1.98 0.99 1.98 0.99 4 2 C3.67 3.65 3.34 5.3 3 7 C2.01 6.34 1.02 5.68 0 5 C-0.1875 2.375 -0.1875 2.375 0 0 Z " fill="#988898" transform="translate(106,106)"/>
<path d="M0 0 C2.88575819 0.39803561 3.82189513 0.79009069 5.75 3.0625 C6.1625 3.701875 6.575 4.34125 7 5 C6.34 5 5.68 5 5 5 C4.67 5.66 4.34 6.32 4 7 C3.67 6.01 3.34 5.02 3 4 C2.01979625 2.9805881 1.02196992 1.97753644 0 1 C0 0.67 0 0.34 0 0 Z " fill="#D3AAA5" transform="translate(69,57)"/>
<path d="M0 0 C0.99 0 1.98 0 3 0 C3 2.97 3 5.94 3 9 C0.87491756 5.81237635 0.4979837 3.73487777 0 0 Z " fill="#9B8183" transform="translate(36,45)"/>
<path d="M0 0 C1.9375 0.3125 1.9375 0.3125 4 1 C4.33 1.99 4.66 2.98 5 4 C5.66 4.33 6.32 4.66 7 5 C4.625 4.75 4.625 4.75 2 4 C0.6875 1.9375 0.6875 1.9375 0 0 Z " fill="#555664" transform="translate(108,120)"/>
<path d="M0 0 C0.99 0.33 1.98 0.66 3 1 C3.33 3.64 3.66 6.28 4 9 C1.3144406 6.3144406 0.93950026 3.62378672 0 0 Z " fill="#5C4F5D" transform="translate(94,99)"/>
<path d="M0 0 C0.99 0 1.98 0 3 0 C3.1953125 6.0546875 3.1953125 6.0546875 3 8 C2.34 8.66 1.68 9.32 1 10 C0.34 9.34 -0.32 8.68 -1 8 C-0.34 7.34 0.32 6.68 1 6 C1.64767793 3.42938689 1.64767793 3.42938689 2 1 C1.34 0.67 0.68 0.34 0 0 Z " fill="#D6C0BE" transform="translate(72,72)"/>
</svg>
